<svg xmlns="http://www.w3.org/2000/svg" viewBox="0 0 117.32 153.22"><defs><style>.cls-1{fill:#983903;}.cls-2{fill:#fff;}</style></defs><g id="Layer_2" data-name="Layer 2"><g id="Layer_1-2" data-name="Layer 1"><path class="cls-1" d="M10.45,153.22v-16.5a5.24,5.24,0,0,1,1.1-3.34A3.28,3.28,0,0,1,14.17,132h3.72a3.22,3.22,0,0,1,2.61,1.4,5.22,5.22,0,0,1,1.09,3.32v16.5h-3.7V143.8H14.17v9.42Zm3.72-11.8h3.72v-4.7a2.64,2.64,0,0,0-.54-1.68,1.65,1.65,0,0,0-1.33-.69,1.62,1.62,0,0,0-1.3.69,2.59,2.59,0,0,0-.55,1.68Z"/><path class="cls-1" d="M32.33,132H36v13.15a8.94,8.94,0,0,1-1.86,5.69,5.51,5.51,0,0,1-4.46,2.38H24.89V132h3.72v18.87h1.85a1.61,1.61,0,0,0,1.32-.71,2.66,2.66,0,0,0,.55-1.67Z"/><path class="cls-1" d="M43,132h3.72a3.22,3.22,0,0,1,2.61,1.4,5.28,5.28,0,0,1,1.09,3.32v11.77a5.29,5.29,0,0,1-1.09,3.33,3.24,3.24,0,0,1-2.61,1.4H43a3.26,3.26,0,0,1-2.62-1.39,5.2,5.2,0,0,1-1.1-3.34V136.72a5.24,5.24,0,0,1,1.1-3.34A3.28,3.28,0,0,1,43,132Zm0,4.72v11.77a2.6,2.6,0,0,0,.55,1.67,1.57,1.57,0,0,0,1.3.71,1.59,1.59,0,0,0,1.32-.71,2.6,2.6,0,0,0,.55-1.67V136.72a2.59,2.59,0,0,0-.55-1.68,1.62,1.62,0,0,0-1.32-.69,1.6,1.6,0,0,0-1.3.69A2.59,2.59,0,0,0,43,136.72Z"/><path class="cls-1" d="M55.63,153.22V132h3.69v21.22Z"/><path class="cls-1" d="M64.47,153.22V132h7.44a3.19,3.19,0,0,1,2.6,1.4,5.23,5.23,0,0,1,1.1,3.32v11.77a5.23,5.23,0,0,1-1.1,3.33,3.21,3.21,0,0,1-2.6,1.4Zm3.72-2.35H70a1.59,1.59,0,0,0,1.32-.71,2.6,2.6,0,0,0,.55-1.67V136.72a2.59,2.59,0,0,0-.55-1.68,1.62,1.62,0,0,0-1.32-.69h38.19Z"/><path class="cls-1" d="M78.9,146.15V143.8h9.29v2.35Z"/><path class="cls-1" d="M94.19,153.22v-16.5H92.34v-2.37L96,132h1.87v21.22Z"/><path class="cls-1" d="M110.34,143.8c-.15,1.56-.77,2.35-1.87,2.35h-1.85a3.29,3.29,0,0,1-2.62-1.39,5.24,5.24,0,0,1-1.1-3.34v-4.7a5.23,5.23,0,0,1,1.1-3.32,3.25,3.25,0,0,1,2.62-1.4h3.72a3.22,3.22,0,0,1,2.61,1.4,5.28,5.28,0,0,1,1.09,3.32V145a9.2,9.2,0,0,1-1.91,5.83,5.66,5.66,0,0,1-4.58,2.43h-2.78v-2.35h1.85a3.27,3.27,0,0,0,2.63-1.4,5.22,5.22,0,0,0,1.09-3.32Zm-3.72-7.08v4.7a2.62,2.62,0,0,0,.55,1.67,1.6,1.6,0,0,0,1.3.71,1.62,1.62,0,0,0,1.32-.71,2.62,2.62,0,0,0,.55-1.67v-4.7a2.59,2.59,0,0,0-.55-1.68,1.62,1.62,0,0,0-1.32-.69,1.59,1.59,0,0,0-1.3.7A2.64,2.64,0,0,0,106.62,136.72Z"/><path class="cls-1" d="M76.51,20A87.26,87.26,0,0,1,60.7,10.12,86.91,86.91,0,0,1,44.89,20a85.94,85.94,0,0,1-19,6.59v46.3a30,30,0,0,0,13.18,25l21.6,14.31L82.31,97.9a30,30,0,0,0,13.18-25V26.59A85.83,85.83,0,0,1,76.51,20Z"/><path class="cls-2" d="M67.33,39.74v.37a1.68,1.68,0,0,1-1.68,1.68h0A1.67,1.67,0,0,0,64,43.46v2.35a1.65,1.65,0,0,0,1.36,1.6A16.61,16.61,0,0,1,71.47,50a1.63,1.63,0,0,0,2.08-.23l1.57-1.57a1.68,1.68,0,0,0,0-2.37l-.26-.26a1.67,1.67,0,0,1,0-2.37l.26-.26a1.68,1.68,0,0,1,2.37,0l5.26,5.26a1.67,1.67,0,0,1,0,2.36l-.27.27a1.67,1.67,0,0,1-2.36,0h0a1.67,1.67,0,0,0-2.37,0l-1.61,1.61a1.67,1.67,0,0,0-.25,2.1,16.77,16.77,0,0,1,2.5,6.17A1.62,1.62,0,0,0,80,62.11h2.3a1.68,1.68,0,0,0,1.67-1.68v-.37a1.67,1.67,0,0,1,1.67-1.67H86a1.68,1.68,0,0,1,1.68,1.67V67.5A1.68,1.68,0,0,1,86,69.17H85.6a1.67,1.67,0,0,1-1.67-1.67,1.67,1.67,0,0,0-1.67-1.67H80a1.7,1.7,0,0,0-1.65,1.39A16.74,16.74,0,0,1,65,80.22a1.7,1.7,0,0,0-1.43,1.66V84.1a1.67,1.67,0,0,0,1.67,1.67h.37a1.68,1.68,0,0,1,1.68,1.68v.37a1.68,1.68,0,0,1-1.68,1.67H58.22a1.68,1.68,0,0,1-1.68-1.67v-.37a1.68,1.68,0,0,1,1.68-1.68h0a1.67,1.67,0,0,0,1.67-1.67V81.75a1.65,1.65,0,0,0-1.36-1.6,16.5,16.5,0,0,1-6.12-2.62,1.64,1.64,0,0,0-2.09.23l-1.57,1.57a1.68,1.68,0,0,0,0,2.37L49,82a1.67,1.67,0,0,1,0,2.37l-.26.26a1.68,1.68,0,0,1-2.37,0l-5.26-5.26a1.67,1.67,0,0,1,0-2.36l.27-.27a1.67,1.67,0,0,1,2.36,0,1.67,1.67,0,0,0,2.37,0l1.61-1.61A1.69,1.69,0,0,0,48,73a16.61,16.61,0,0,1-2.51-6.17,1.62,1.62,0,0,0-1.57-1.37H41.62a1.68,1.68,0,0,0-1.68,1.68v.37a1.67,1.67,0,0,1-1.67,1.67H37.9a1.68,1.68,0,0,1-1.68-1.67V60.06a1.68,1.68,0,0,1,1.68-1.67h.37a1.67,1.67,0,0,1,1.67,1.67,1.67,1.67,0,0,0,1.68,1.67h2.3a1.69,1.69,0,0,0,1.65-1.39,16.74,16.74,0,0,1,13.26-13,1.7,1.7,0,0,0,1.43-1.66V43.46a1.67,1.67,0,0,0-1.67-1.67h-.37a1.68,1.68,0,0,1-1.68-1.68v-.37a1.68,1.68,0,0,1,1.68-1.67h7.43A1.68,1.68,0,0,1,67.33,39.74ZM50,63.78A11.93,11.93,0,1,0,61.94,51.85,11.93,11.93,0,0,0,50,63.78Z"/><polygon class="cls-2" points="102.26 102.25 104.4 100.08 101.58 97.11 82.43 76.88 47.97 40.48 27.68 19.03 0 0 43.54 43.54 80.02 80.02 99.33 99.31 102.26 102.25"/><polygon class="cls-1" points="100.08 104.42 102.26 102.25 99.33 99.31 80.02 80.02 43.54 43.54 0 0 19.04 27.7 40.52 48.03 76.81 82.4 97.06 101.59 100.08 104.42"/><polyline class="cls-2" points="109.5 100.85 105.83 104.53 105.18 105.17 101.5 108.85"/><path class="cls-1" d="M94.69,116.31l-.82-7.66a7.34,7.34,0,0,1,2.1-6l3.37-3.36.64-.65,3.37-3.36a7.28,7.28,0,0,1,6-2.1L117,94"/><path class="cls-1" d="M106.5,99.23h3.12a0,0,0,0,1,0,0v16.54a4.12,4.12,0,0,1-4.12,4.12h-2a0,0,0,0,1,0,0V99.23a0,0,0,0,1,0,0Z" transform="translate(-45.38 109.56) rotate(-45)"/></g></g></svg>