<svg width="47" height="71" viewBox="0 0 47 71" fill="none" xmlns="http://www.w3.org/2000/svg">
<rect width="47" height="47" rx="12" fill="#CD5B54"/>
<path d="M11.54 66.776H11.504C11.4 67.168 11.144 67.496 10.736 67.76C10.336 68.016 9.816 68.144 9.176 68.144C8.664 68.144 8.192 68.052 7.76 67.868C7.336 67.676 6.972 67.4 6.668 67.04C6.364 66.672 6.124 66.22 5.948 65.684C5.78 65.14 5.696 64.516 5.696 63.812C5.696 63.116 5.78 62.5 5.948 61.964C6.116 61.42 6.356 60.968 6.668 60.608C6.98 60.24 7.356 59.96 7.796 59.768C8.236 59.576 8.724 59.48 9.26 59.48C10.012 59.48 10.64 59.648 11.144 59.984C11.648 60.32 12.036 60.764 12.308 61.316L11.48 61.82C11.288 61.372 11 61.02 10.616 60.764C10.24 60.508 9.788 60.38 9.26 60.38C8.892 60.38 8.556 60.448 8.252 60.584C7.948 60.712 7.684 60.896 7.46 61.136C7.244 61.376 7.076 61.664 6.956 62C6.836 62.336 6.776 62.712 6.776 63.128V64.484C6.776 64.9 6.836 65.28 6.956 65.624C7.076 65.96 7.244 66.248 7.46 66.488C7.684 66.728 7.956 66.916 8.276 67.052C8.596 67.18 8.956 67.244 9.356 67.244C9.644 67.244 9.916 67.208 10.172 67.136C10.436 67.056 10.664 66.94 10.856 66.788C11.056 66.636 11.212 66.448 11.324 66.224C11.436 65.992 11.492 65.72 11.492 65.408V64.58H9.644V63.692H12.476V68H11.54V66.776ZM16.7038 68.144C16.2878 68.144 15.9078 68.068 15.5638 67.916C15.2198 67.764 14.9238 67.548 14.6758 67.268C14.4358 66.98 14.2478 66.64 14.1118 66.248C13.9758 65.848 13.9078 65.4 13.9078 64.904C13.9078 64.416 13.9758 63.972 14.1118 63.572C14.2478 63.172 14.4358 62.832 14.6758 62.552C14.9238 62.264 15.2198 62.044 15.5638 61.892C15.9078 61.74 16.2878 61.664 16.7038 61.664C17.1198 61.664 17.4958 61.74 17.8318 61.892C18.1758 62.044 18.4718 62.264 18.7198 62.552C18.9678 62.832 19.1598 63.172 19.2958 63.572C19.4318 63.972 19.4998 64.416 19.4998 64.904C19.4998 65.4 19.4318 65.848 19.2958 66.248C19.1598 66.64 18.9678 66.98 18.7198 67.268C18.4718 67.548 18.1758 67.764 17.8318 67.916C17.4958 68.068 17.1198 68.144 16.7038 68.144ZM16.7038 67.292C17.2238 67.292 17.6478 67.132 17.9758 66.812C18.3038 66.492 18.4678 66.004 18.4678 65.348V64.46C18.4678 63.804 18.3038 63.316 17.9758 62.996C17.6478 62.676 17.2238 62.516 16.7038 62.516C16.1838 62.516 15.7598 62.676 15.4318 62.996C15.1038 63.316 14.9398 63.804 14.9398 64.46V65.348C14.9398 66.004 15.1038 66.492 15.4318 66.812C15.7598 67.132 16.1838 67.292 16.7038 67.292ZM27.1425 68.144C26.5985 68.144 26.1065 68.052 25.6665 67.868C25.2345 67.676 24.8625 67.4 24.5505 67.04C24.2465 66.672 24.0105 66.22 23.8425 65.684C23.6745 65.14 23.5905 64.516 23.5905 63.812C23.5905 63.108 23.6745 62.488 23.8425 61.952C24.0105 61.416 24.2465 60.964 24.5505 60.596C24.8625 60.228 25.2345 59.952 25.6665 59.768C26.1065 59.576 26.5985 59.48 27.1425 59.48C27.6785 59.48 28.1665 59.576 28.6065 59.768C29.0465 59.952 29.4185 60.228 29.7225 60.596C30.0345 60.964 30.2745 61.416 30.4425 61.952C30.6105 62.488 30.6945 63.108 30.6945 63.812C30.6945 64.516 30.6105 65.14 30.4425 65.684C30.2745 66.22 30.0345 66.672 29.7225 67.04C29.4185 67.4 29.0465 67.676 28.6065 67.868C28.1665 68.052 27.6785 68.144 27.1425 68.144ZM27.1425 67.244C27.5025 67.244 27.8345 67.18 28.1385 67.052C28.4425 66.924 28.7025 66.74 28.9185 66.5C29.1425 66.26 29.3145 65.972 29.4345 65.636C29.5545 65.3 29.6145 64.924 29.6145 64.508V63.116C29.6145 62.7 29.5545 62.324 29.4345 61.988C29.3145 61.652 29.1425 61.364 28.9185 61.124C28.7025 60.884 28.4425 60.7 28.1385 60.572C27.8345 60.444 27.5025 60.38 27.1425 60.38C26.7825 60.38 26.4505 60.444 26.1465 60.572C25.8425 60.7 25.5785 60.884 25.3545 61.124C25.1385 61.364 24.9705 61.652 24.8505 61.988C24.7305 62.324 24.6705 62.7 24.6705 63.116V64.508C24.6705 64.924 24.7305 65.3 24.8505 65.636C24.9705 65.972 25.1385 66.26 25.3545 66.5C25.5785 66.74 25.8425 66.924 26.1465 67.052C26.4505 67.18 26.7825 67.244 27.1425 67.244ZM36.2266 66.992H36.1786C36.1146 67.136 36.0346 67.28 35.9386 67.424C35.8506 67.56 35.7386 67.684 35.6026 67.796C35.4666 67.9 35.3026 67.984 35.1106 68.048C34.9186 68.112 34.6946 68.144 34.4386 68.144C33.7986 68.144 33.2906 67.94 32.9146 67.532C32.5386 67.116 32.3506 66.532 32.3506 65.78V61.808H33.3106V65.612C33.3106 66.724 33.7826 67.28 34.7266 67.28C34.9186 67.28 35.1026 67.256 35.2786 67.208C35.4626 67.16 35.6226 67.088 35.7586 66.992C35.9026 66.896 36.0146 66.776 36.0946 66.632C36.1826 66.48 36.2266 66.3 36.2266 66.092V61.808H37.1866V68H36.2266V66.992ZM40.5989 68C40.2629 68 40.0069 67.908 39.8309 67.724C39.6629 67.532 39.5789 67.284 39.5789 66.98V62.648H38.5589V61.808H39.1349C39.3429 61.808 39.4829 61.768 39.5549 61.688C39.6349 61.6 39.6749 61.452 39.6749 61.244V60.092H40.5389V61.808H41.8949V62.648H40.5389V67.16H41.7989V68H40.5989Z" fill="#CD5B54"/>
<path d="M26.6 38H17.5333C15.6 38 14 36.4164 14 34.4284V13.5716C14 11.6173 15.5667 10 17.5333 10H26.6C28.5333 10 30.1333 11.5836 30.1333 13.5716V20.917C30.1333 21.3887 29.7667 21.7256 29.3333 21.7256C28.9 21.7256 28.5333 21.355 28.5333 20.917V13.5716C28.5333 12.5271 27.6667 11.651 26.6333 11.651H17.5333C16.5 11.651 15.6333 12.5271 15.6333 13.5716V34.4621C15.6333 35.5066 16.5 36.3827 17.5333 36.3827H26.6C27.6333 36.3827 28.5 35.5403 28.5 34.4621V27.1167C28.5 26.645 28.8667 26.3081 29.3 26.3081C29.7333 26.3081 30.1 26.6787 30.1 27.1167V34.4621C30.1 36.4164 28.5333 38 26.6 38ZM36.8667 24.0168C36.8667 23.5451 36.5 23.2082 36.0667 23.2082H22.0667C21.6 23.2082 21.2667 23.5788 21.2667 24.0168C21.2667 24.4549 21.6333 24.8255 22.0667 24.8255H36.0333C36.5 24.8255 36.8667 24.4886 36.8667 24.0168ZM36.5667 28.8688L40.7667 24.6233C40.9333 24.4549 41 24.2527 41 24.0505C41 23.8484 40.9 23.6125 40.7667 23.4777L36.3333 18.9627C36 18.6258 35.5 18.6258 35.1667 18.9627C34.8333 19.2996 34.8333 19.8051 35.1667 20.142L39.0333 24.0168L35.4 27.6895C35.0667 28.0265 35.0667 28.5319 35.4 28.8688C35.5667 29.0373 35.7667 29.1047 35.9667 29.1047C36.1667 29.1047 36.4 29.0036 36.5667 28.8688Z" fill="white"/>
</svg>
