<svg width="83" height="109" viewBox="0 0 83 109" fill="none" xmlns="http://www.w3.org/2000/svg">
<g id="Group 5">
<g id="Group 125">
<g id="Group">
<path id="Vector" d="M79.8077 12.7707C67.9083 12.7707 56.3891 9.28217 46.4881 2.6826L43.2707 0.537797C42.7344 0.179195 42.1172 0 41.5 0C40.8828 0 40.2654 0.179195 39.7293 0.537797L36.5121 2.6826C26.6109 9.28238 15.0917 12.7707 3.19231 12.7707C1.42781 12.7707 0 14.1985 0 15.963V52.4105C0 77.9396 16.2733 100.729 40.49 108.8C40.8173 108.91 41.1601 108.966 41.5 108.966C41.8399 108.966 42.1827 108.909 42.51 108.8C66.7267 100.729 83 77.9396 83 52.4105V15.963C83 14.1985 81.5722 12.7707 79.8077 12.7707Z" fill="#A5BF9A"/>
<path id="Vector_2" d="M82.9998 52.4105V15.963C82.9998 14.1985 81.5719 12.7707 79.8074 12.7707C67.908 12.7707 56.3889 9.28217 46.4878 2.6826L43.2704 0.537797C42.7341 0.179195 42.1169 0 41.4998 0V108.966C41.8396 108.966 42.1825 108.909 42.5098 108.8C66.7264 100.729 82.9998 77.9396 82.9998 52.4105Z" fill="#627C56"/>
<path id="Vector_3" d="M42.9464 7.99496L41.4999 7.03174L40.0534 7.99496C29.9901 14.7037 18.4087 18.507 6.38452 19.0808V52.4106C6.38452 74.8317 20.4507 94.9121 41.4999 102.397C62.5491 94.9121 76.6153 74.8317 76.6153 52.4106V19.0808C64.5911 18.507 53.0097 14.7037 42.9464 7.99496Z" fill="#F3F5F9"/>
<path id="Vector_4" d="M76.6151 52.4106V19.0808C64.591 18.5072 53.0095 14.7039 42.9463 7.99496L41.4998 7.03174V102.397C62.549 94.9121 76.6151 74.8317 76.6151 52.4106Z" fill="#F3F5F9"/>
<path id="Vector_5" d="M41.4997 76.8295C53.8412 76.8295 63.8459 66.8248 63.8459 54.4834C63.8459 42.1419 53.8412 32.1372 41.4997 32.1372C29.1583 32.1372 19.1536 42.1419 19.1536 54.4834C19.1536 66.8248 29.1583 76.8295 41.4997 76.8295Z" fill="#A5BF9A"/>
<path id="Vector_6" d="M63.8459 54.4834C63.8459 42.163 53.8201 32.1372 41.4998 32.1372V76.8295C53.8199 76.8295 63.8459 66.8037 63.8459 54.4834Z" fill="#627C56"/>
</g>
<g id="Group_2">
<path id="Vector_7" d="M41.5001 64.2253C47.3837 64.2253 52.1533 59.4557 52.1533 53.5721C52.1533 47.6885 47.3837 42.9189 41.5001 42.9189C35.6165 42.9189 30.8469 47.6885 30.8469 53.5721C30.8469 59.4557 35.6165 64.2253 41.5001 64.2253Z" fill="#A5BF9A"/>
<path id="Vector_8" d="M41.5 42.9189V64.2253C47.3836 64.2253 52.1532 59.4558 52.1532 53.5722C52.1532 47.6886 47.3836 42.9189 41.5 42.9189Z" fill="#627C56"/>
<g id="Vector_9">
<g id="Vector_10">
<mask id="path-9-inside-1" fill="white">
<path d="M54.9867 59.4722C54.8037 59.7891 54.3985 59.8977 54.0816 59.7148L52.8137 58.9827C52.3629 58.7225 52.1918 58.1614 52.376 57.6746C52.6606 56.9226 52.8693 56.1336 52.9928 55.317C53.0586 54.8815 53.4222 54.5431 53.8626 54.5431H54.1767C54.4709 54.5431 54.7094 54.7816 54.7094 55.0758C54.7094 55.3701 54.9479 55.6086 55.2421 55.6086H55.6805C56.2168 55.6086 56.6515 55.1738 56.6515 54.6375V52.5066C56.6515 51.9703 56.2168 51.5356 55.6805 51.5356H55.2421C54.9479 51.5356 54.7094 51.7741 54.7094 52.0683C54.7094 52.3625 54.4709 52.601 54.1767 52.601H53.8626C53.4222 52.601 53.0586 52.2626 52.9928 51.8271C52.8693 51.0105 52.6606 50.2215 52.376 49.4695C52.1917 48.9827 52.3629 48.4217 52.8136 48.1614L54.0815 47.4294C54.3985 47.2464 54.8037 47.355 54.9867 47.672C55.1697 47.9889 55.575 48.0975 55.8919 47.9145L56.159 47.7603C56.6235 47.4922 56.7826 46.8983 56.5144 46.4338L55.1892 44.1384C54.921 43.6739 54.3271 43.5148 53.8627 43.7829L53.5956 43.9371C53.2787 44.1201 53.1701 44.5254 53.3531 44.8423C53.5361 45.1593 53.4275 45.5645 53.1105 45.7475L51.8375 46.4825C51.3877 46.7422 50.8175 46.6111 50.488 46.2097C49.9717 45.5805 49.3908 45.0063 48.7554 44.4974C48.4109 44.2214 48.3 43.7364 48.5207 43.3541L48.6793 43.0794C48.8264 42.8246 49.1522 42.7373 49.407 42.8844C49.6618 43.0315 49.9876 42.9442 50.1347 42.6894L50.3539 42.3098C50.622 41.8454 50.4629 41.2515 49.9985 40.9833L48.1531 39.9178C47.6887 39.6496 47.0948 39.8087 46.8266 40.2732L46.6075 40.6528C46.4603 40.9076 46.5476 41.2334 46.8024 41.3805C47.0572 41.5276 47.1445 41.8534 46.9974 42.1082L46.8402 42.3804C46.6198 42.7622 46.1444 42.9078 45.734 42.7468C44.9852 42.4529 44.1988 42.2345 43.3842 42.1012C42.8709 42.0172 42.471 41.5886 42.471 41.0684V39.6048C42.471 39.2388 42.7677 38.9421 43.1337 38.9421C43.4997 38.9421 43.7964 38.6455 43.7964 38.2795V37.9711C43.7964 37.4348 43.3616 37 42.8253 37H40.1747C39.6384 37 39.2037 37.4348 39.2037 37.9711V38.2795C39.2037 38.6455 39.5003 38.9421 39.8663 38.9421C40.2323 38.9421 40.529 39.2388 40.529 39.6048V41.0684C40.529 41.5885 40.1291 42.0171 39.6157 42.1012C38.8011 42.2345 38.0148 42.4529 37.266 42.7467C36.8556 42.9078 36.3802 42.7622 36.1598 42.3804L36.0026 42.1082C35.8555 41.8534 35.9428 41.5276 36.1976 41.3805C36.4524 41.2334 36.5397 40.9076 36.3926 40.6528L36.1734 40.2732C35.9052 39.8087 35.3114 39.6496 34.8469 39.9178L33.0015 40.9832C32.5371 41.2514 32.378 41.8452 32.6461 42.3097L32.8653 42.6893C33.0124 42.9441 33.3382 43.0314 33.593 42.8843C33.8478 42.7372 34.1736 42.8245 34.3207 43.0792L34.4793 43.354C34.7 43.7362 34.5891 44.2213 34.2446 44.4972C33.6092 45.0062 33.0283 45.5804 32.512 46.2096C32.1825 46.6111 31.6123 46.7421 31.1626 46.4824L29.8895 45.7474C29.5726 45.5644 29.464 45.1591 29.647 44.8422C29.8299 44.5253 29.7214 44.12 29.4044 43.937L29.1373 43.7828C28.6729 43.5147 28.079 43.6738 27.8109 44.1382L26.4855 46.4338C26.2174 46.8982 26.3765 47.4921 26.8409 47.7602L27.108 47.9144C27.425 48.0974 27.8302 47.9888 28.0132 47.6719C28.1962 47.355 28.6015 47.2464 28.9184 47.4294L30.1863 48.1614C30.637 48.4216 30.8082 48.9827 30.624 49.4695C30.3393 50.2215 30.1306 51.0105 30.0072 51.8271C29.9413 52.2626 29.5778 52.601 29.1373 52.601H28.8233C28.5291 52.601 28.2906 52.3625 28.2906 52.0682C28.2906 51.774 28.0521 51.5355 27.7578 51.5355H27.3195C26.7832 51.5355 26.3484 51.9703 26.3484 52.5066V54.6374C26.3484 55.1737 26.7832 55.6085 27.3195 55.6085H27.7578C28.0521 55.6085 28.2906 55.37 28.2906 55.0758C28.2906 54.7816 28.5291 54.543 28.8233 54.543H29.1373C29.5778 54.543 29.9413 54.8814 30.0072 55.317C30.1306 56.1336 30.3394 56.9226 30.624 57.6746C30.8082 58.1614 30.6371 58.7224 30.1863 58.9826L28.9184 59.7147C28.6015 59.8976 28.1962 59.7891 28.0133 59.4721C27.8303 59.1552 27.425 59.0466 27.1081 59.2296L26.841 59.3838C26.3766 59.652 26.2174 60.2459 26.4856 60.7103L27.8109 63.0058C28.079 63.4702 28.6729 63.6294 29.1373 63.3612L29.4044 63.207C29.7214 63.024 29.8299 62.6188 29.647 62.3018C29.464 61.9849 29.5726 61.5797 29.8895 61.3967L31.1625 60.6617C31.6123 60.402 32.1825 60.5331 32.512 60.9345C33.0283 61.5637 33.6092 62.1379 34.2445 62.6468C34.589 62.9228 34.6999 63.4079 34.4792 63.7901L34.3206 64.0648C34.1735 64.3196 33.8477 64.4069 33.5929 64.2598C33.3382 64.1127 33.0124 64.2 32.8653 64.4548L32.6461 64.8344C32.3779 65.2988 32.537 65.8927 33.0015 66.1609L34.8468 67.2263C35.3113 67.4945 35.9052 67.3354 36.1733 66.8709L36.3925 66.4913C36.5396 66.2365 36.4523 65.9107 36.1975 65.7636C35.9428 65.6165 35.8555 65.2907 36.0026 65.0359L36.1597 64.7637C36.3802 64.3819 36.8556 64.2362 37.266 64.3973C38.0147 64.6912 38.8011 64.9095 39.6157 65.0429C40.1291 65.1269 40.5289 65.5555 40.5289 66.0757V67.5393C40.5289 67.9053 40.2322 68.2019 39.8662 68.2019C39.5003 68.2019 39.2036 68.4986 39.2036 68.8646V69.173C39.2036 69.7093 39.6384 70.1441 40.1747 70.1441H42.8252C43.3615 70.1441 43.7963 69.7093 43.7963 69.173V68.8646C43.7963 68.4986 43.4996 68.2019 43.1336 68.2019C42.7677 68.2019 42.471 67.9053 42.471 67.5393V66.0757C42.471 65.5555 42.8709 65.1269 43.3842 65.0429C44.1988 64.9096 44.9852 64.6912 45.7339 64.3973C46.1443 64.2362 46.6197 64.3819 46.8402 64.7637L46.9973 65.0359C47.1444 65.2907 47.0571 65.6165 46.8024 65.7636C46.5476 65.9107 46.4603 66.2365 46.6074 66.4913L46.8266 66.8709C47.0947 67.3354 47.6886 67.4945 48.1531 67.2263L49.9984 66.1609C50.4629 65.8927 50.622 65.2988 50.3538 64.8344L50.1346 64.4548C49.9875 64.2 49.6617 64.1127 49.407 64.2598C49.1522 64.4069 48.8264 64.3196 48.6793 64.0648L48.5207 63.7901C48.3 63.4079 48.4109 62.9228 48.7554 62.6468C49.3907 62.1379 49.9716 61.5637 50.4879 60.9345C50.8174 60.5331 51.3876 60.402 51.8373 60.6617L53.1104 61.3967C53.4273 61.5797 53.5359 61.9849 53.3529 62.3019C53.1699 62.6188 53.2785 63.0241 53.5955 63.2071L53.8625 63.3613C54.327 63.6294 54.9209 63.4703 55.189 63.0058L56.5143 60.7104C56.7825 60.2459 56.6233 59.6521 56.1589 59.3839L55.8918 59.2297C55.5748 59.0467 55.1696 59.1553 54.9867 59.4722ZM41.5 63.2541C36.1612 63.2541 31.8179 58.9108 31.8179 53.572C31.8179 48.2333 36.1612 43.8899 41.5 43.8899C46.8387 43.8899 51.1821 48.2333 51.1821 53.572C51.1821 58.9108 46.8387 63.2541 41.5 63.2541Z"/>
</mask>
<path d="M54.9867 59.4722C54.8037 59.7891 54.3985 59.8977 54.0816 59.7148L52.8137 58.9827C52.3629 58.7225 52.1918 58.1614 52.376 57.6746C52.6606 56.9226 52.8693 56.1336 52.9928 55.317C53.0586 54.8815 53.4222 54.5431 53.8626 54.5431H54.1767C54.4709 54.5431 54.7094 54.7816 54.7094 55.0758C54.7094 55.3701 54.9479 55.6086 55.2421 55.6086H55.6805C56.2168 55.6086 56.6515 55.1738 56.6515 54.6375V52.5066C56.6515 51.9703 56.2168 51.5356 55.6805 51.5356H55.2421C54.9479 51.5356 54.7094 51.7741 54.7094 52.0683C54.7094 52.3625 54.4709 52.601 54.1767 52.601H53.8626C53.4222 52.601 53.0586 52.2626 52.9928 51.8271C52.8693 51.0105 52.6606 50.2215 52.376 49.4695C52.1917 48.9827 52.3629 48.4217 52.8136 48.1614L54.0815 47.4294C54.3985 47.2464 54.8037 47.355 54.9867 47.672C55.1697 47.9889 55.575 48.0975 55.8919 47.9145L56.159 47.7603C56.6235 47.4922 56.7826 46.8983 56.5144 46.4338L55.1892 44.1384C54.921 43.6739 54.3271 43.5148 53.8627 43.7829L53.5956 43.9371C53.2787 44.1201 53.1701 44.5254 53.3531 44.8423C53.5361 45.1593 53.4275 45.5645 53.1105 45.7475L51.8375 46.4825C51.3877 46.7422 50.8175 46.6111 50.488 46.2097C49.9717 45.5805 49.3908 45.0063 48.7554 44.4974C48.4109 44.2214 48.3 43.7364 48.5207 43.3541L48.6793 43.0794C48.8264 42.8246 49.1522 42.7373 49.407 42.8844C49.6618 43.0315 49.9876 42.9442 50.1347 42.6894L50.3539 42.3098C50.622 41.8454 50.4629 41.2515 49.9985 40.9833L48.1531 39.9178C47.6887 39.6496 47.0948 39.8087 46.8266 40.2732L46.6075 40.6528C46.4603 40.9076 46.5476 41.2334 46.8024 41.3805C47.0572 41.5276 47.1445 41.8534 46.9974 42.1082L46.8402 42.3804C46.6198 42.7622 46.1444 42.9078 45.734 42.7468C44.9852 42.4529 44.1988 42.2345 43.3842 42.1012C42.8709 42.0172 42.471 41.5886 42.471 41.0684V39.6048C42.471 39.2388 42.7677 38.9421 43.1337 38.9421C43.4997 38.9421 43.7964 38.6455 43.7964 38.2795V37.9711C43.7964 37.4348 43.3616 37 42.8253 37H40.1747C39.6384 37 39.2037 37.4348 39.2037 37.9711V38.2795C39.2037 38.6455 39.5003 38.9421 39.8663 38.9421C40.2323 38.9421 40.529 39.2388 40.529 39.6048V41.0684C40.529 41.5885 40.1291 42.0171 39.6157 42.1012C38.8011 42.2345 38.0148 42.4529 37.266 42.7467C36.8556 42.9078 36.3802 42.7622 36.1598 42.3804L36.0026 42.1082C35.8555 41.8534 35.9428 41.5276 36.1976 41.3805C36.4524 41.2334 36.5397 40.9076 36.3926 40.6528L36.1734 40.2732C35.9052 39.8087 35.3114 39.6496 34.8469 39.9178L33.0015 40.9832C32.5371 41.2514 32.378 41.8452 32.6461 42.3097L32.8653 42.6893C33.0124 42.9441 33.3382 43.0314 33.593 42.8843C33.8478 42.7372 34.1736 42.8245 34.3207 43.0792L34.4793 43.354C34.7 43.7362 34.5891 44.2213 34.2446 44.4972C33.6092 45.0062 33.0283 45.5804 32.512 46.2096C32.1825 46.6111 31.6123 46.7421 31.1626 46.4824L29.8895 45.7474C29.5726 45.5644 29.464 45.1591 29.647 44.8422C29.8299 44.5253 29.7214 44.12 29.4044 43.937L29.1373 43.7828C28.6729 43.5147 28.079 43.6738 27.8109 44.1382L26.4855 46.4338C26.2174 46.8982 26.3765 47.4921 26.8409 47.7602L27.108 47.9144C27.425 48.0974 27.8302 47.9888 28.0132 47.6719C28.1962 47.355 28.6015 47.2464 28.9184 47.4294L30.1863 48.1614C30.637 48.4216 30.8082 48.9827 30.624 49.4695C30.3393 50.2215 30.1306 51.0105 30.0072 51.8271C29.9413 52.2626 29.5778 52.601 29.1373 52.601H28.8233C28.5291 52.601 28.2906 52.3625 28.2906 52.0682C28.2906 51.774 28.0521 51.5355 27.7578 51.5355H27.3195C26.7832 51.5355 26.3484 51.9703 26.3484 52.5066V54.6374C26.3484 55.1737 26.7832 55.6085 27.3195 55.6085H27.7578C28.0521 55.6085 28.2906 55.37 28.2906 55.0758C28.2906 54.7816 28.5291 54.543 28.8233 54.543H29.1373C29.5778 54.543 29.9413 54.8814 30.0072 55.317C30.1306 56.1336 30.3394 56.9226 30.624 57.6746C30.8082 58.1614 30.6371 58.7224 30.1863 58.9826L28.9184 59.7147C28.6015 59.8976 28.1962 59.7891 28.0133 59.4721C27.8303 59.1552 27.425 59.0466 27.1081 59.2296L26.841 59.3838C26.3766 59.652 26.2174 60.2459 26.4856 60.7103L27.8109 63.0058C28.079 63.4702 28.6729 63.6294 29.1373 63.3612L29.4044 63.207C29.7214 63.024 29.8299 62.6188 29.647 62.3018C29.464 61.9849 29.5726 61.5797 29.8895 61.3967L31.1625 60.6617C31.6123 60.402 32.1825 60.5331 32.512 60.9345C33.0283 61.5637 33.6092 62.1379 34.2445 62.6468C34.589 62.9228 34.6999 63.4079 34.4792 63.7901L34.3206 64.0648C34.1735 64.3196 33.8477 64.4069 33.5929 64.2598C33.3382 64.1127 33.0124 64.2 32.8653 64.4548L32.6461 64.8344C32.3779 65.2988 32.537 65.8927 33.0015 66.1609L34.8468 67.2263C35.3113 67.4945 35.9052 67.3354 36.1733 66.8709L36.3925 66.4913C36.5396 66.2365 36.4523 65.9107 36.1975 65.7636C35.9428 65.6165 35.8555 65.2907 36.0026 65.0359L36.1597 64.7637C36.3802 64.3819 36.8556 64.2362 37.266 64.3973C38.0147 64.6912 38.8011 64.9095 39.6157 65.0429C40.1291 65.1269 40.5289 65.5555 40.5289 66.0757V67.5393C40.5289 67.9053 40.2322 68.2019 39.8662 68.2019C39.5003 68.2019 39.2036 68.4986 39.2036 68.8646V69.173C39.2036 69.7093 39.6384 70.1441 40.1747 70.1441H42.8252C43.3615 70.1441 43.7963 69.7093 43.7963 69.173V68.8646C43.7963 68.4986 43.4996 68.2019 43.1336 68.2019C42.7677 68.2019 42.471 67.9053 42.471 67.5393V66.0757C42.471 65.5555 42.8709 65.1269 43.3842 65.0429C44.1988 64.9096 44.9852 64.6912 45.7339 64.3973C46.1443 64.2362 46.6197 64.3819 46.8402 64.7637L46.9973 65.0359C47.1444 65.2907 47.0571 65.6165 46.8024 65.7636C46.5476 65.9107 46.4603 66.2365 46.6074 66.4913L46.8266 66.8709C47.0947 67.3354 47.6886 67.4945 48.1531 67.2263L49.9984 66.1609C50.4629 65.8927 50.622 65.2988 50.3538 64.8344L50.1346 64.4548C49.9875 64.2 49.6617 64.1127 49.407 64.2598C49.1522 64.4069 48.8264 64.3196 48.6793 64.0648L48.5207 63.7901C48.3 63.4079 48.4109 62.9228 48.7554 62.6468C49.3907 62.1379 49.9716 61.5637 50.4879 60.9345C50.8174 60.5331 51.3876 60.402 51.8373 60.6617L53.1104 61.3967C53.4273 61.5797 53.5359 61.9849 53.3529 62.3019C53.1699 62.6188 53.2785 63.0241 53.5955 63.2071L53.8625 63.3613C54.327 63.6294 54.9209 63.4703 55.189 63.0058L56.5143 60.7104C56.7825 60.2459 56.6233 59.6521 56.1589 59.3839L55.8918 59.2297C55.5748 59.0467 55.1696 59.1553 54.9867 59.4722ZM41.5 63.2541C36.1612 63.2541 31.8179 58.9108 31.8179 53.572C31.8179 48.2333 36.1612 43.8899 41.5 43.8899C46.8387 43.8899 51.1821 48.2333 51.1821 53.572C51.1821 58.9108 46.8387 63.2541 41.5 63.2541Z" fill="#F3F5F9" stroke="#F3F5F9" stroke-width="2.00011" mask="url(#path-9-inside-1)"/>
</g>
</g>
<path id="Vector_11" d="M54.9867 59.4722C54.8038 59.7891 54.3985 59.8977 54.0816 59.7147L52.8137 58.9827C52.3629 58.7225 52.1918 58.1614 52.376 57.6746C52.6606 56.9226 52.8694 56.1336 52.9928 55.317C53.0587 54.8815 53.4222 54.5431 53.8627 54.5431H54.1767C54.4709 54.5431 54.7094 54.7816 54.7094 55.0758C54.7094 55.3701 54.9479 55.6086 55.2422 55.6086H55.6805C56.2168 55.6086 56.6516 55.1738 56.6516 54.6375V52.5066C56.6516 51.9703 56.2168 51.5356 55.6805 51.5356H55.2421C54.9479 51.5356 54.7094 51.7741 54.7094 52.0683C54.7094 52.3625 54.4709 52.601 54.1767 52.601H53.8627C53.4222 52.601 53.0587 52.2626 52.9928 51.8271C52.8693 51.0105 52.6606 50.2215 52.376 49.4695C52.1918 48.9827 52.3629 48.4217 52.8137 48.1614L54.0816 47.4294C54.3985 47.2464 54.8038 47.355 54.9868 47.672C55.1697 47.9889 55.575 48.0975 55.892 47.9145L56.159 47.7603C56.6235 47.4922 56.7826 46.8983 56.5145 46.4338L55.1892 44.1384C54.921 43.6739 54.3271 43.5148 53.8627 43.7829L53.5956 43.9371C53.2787 44.1201 53.1701 44.5254 53.3531 44.8423C53.5361 45.1593 53.4275 45.5645 53.1105 45.7475L51.8375 46.4825C51.3877 46.7422 50.8175 46.6111 50.4881 46.2097C49.9718 45.5805 49.3908 45.0063 48.7555 44.4974C48.411 44.2214 48.3 43.7364 48.5208 43.3541L48.6794 43.0794C48.8265 42.8246 49.1523 42.7373 49.407 42.8844C49.6618 43.0315 49.9876 42.9442 50.1347 42.6894L50.3539 42.3098C50.6221 41.8454 50.463 41.2515 49.9985 40.9833L48.1531 39.9178C47.6887 39.6496 47.0948 39.8087 46.8266 40.2732L46.6075 40.6528C46.4604 40.9076 46.5477 41.2334 46.8024 41.3805C47.0572 41.5276 47.1445 41.8534 46.9974 42.1082L46.8403 42.3804C46.6198 42.7622 46.1444 42.9078 45.734 42.7468C44.9852 42.4529 44.1989 42.2345 43.3843 42.1012C42.8709 42.0172 42.4711 41.5886 42.4711 41.0684V39.6048C42.4711 39.2388 42.7678 38.9421 43.1337 38.9421C43.4997 38.9421 43.7964 38.6455 43.7964 38.2795V37.9711C43.7964 37.4348 43.3616 37 42.8253 37H41.4297L41.5 43.8899C46.8388 43.8899 51.1821 48.2333 51.1821 53.572C51.1821 58.9108 46.8388 63.2541 41.5 63.2541V70.1441H42.8253C43.3616 70.1441 43.7964 69.7093 43.7964 69.173V68.8646C43.7964 68.4986 43.4997 68.2019 43.1337 68.2019C42.7678 68.2019 42.4711 67.9053 42.4711 67.5393V66.0757C42.4711 65.5555 42.871 65.1269 43.3843 65.0429C44.1989 64.9096 44.9853 64.6912 45.734 64.3973C46.1444 64.2362 46.6198 64.3819 46.8403 64.7637L46.9974 65.0359C47.1445 65.2907 47.0572 65.6165 46.8024 65.7636C46.5477 65.9107 46.4604 66.2365 46.6075 66.4913L46.8266 66.8709C47.0948 67.3354 47.6887 67.4945 48.1531 67.2263L49.9985 66.1609C50.4629 65.8927 50.6221 65.2988 50.3539 64.8344L50.1347 64.4548C49.9876 64.2 49.6618 64.1127 49.407 64.2598C49.1523 64.4069 48.8265 64.3196 48.6794 64.0648L48.5208 63.7901C48.3 63.4079 48.411 62.9228 48.7555 62.6468C49.3908 62.1379 49.9717 61.5637 50.488 60.9345C50.8175 60.5331 51.3877 60.402 51.8374 60.6617L53.1105 61.3967C53.4274 61.5797 53.536 61.9849 53.353 62.3019C53.17 62.6188 53.2786 63.0241 53.5956 63.2071L53.8626 63.3613C54.3271 63.6294 54.921 63.4703 55.1891 63.0059L56.5144 60.7104C56.7825 60.2459 56.6234 59.6521 56.159 59.3839L55.8919 59.2297C55.5749 59.0467 55.1697 59.1553 54.9867 59.4722Z" fill="#F3F5F9"/>
</g>
</g>
<line id="Line 10" x1="27" y1="70.4056" x2="57.4056" y2="40" stroke="#F3F5F9" stroke-width="2" stroke-linecap="round" stroke-linejoin="round"/>
</g>
</svg>
